<?xml version="1.0" standalone="no"?>
<!DOCTYPE svg PUBLIC "-//W3C//DTD SVG 20010904//EN"
 "http://www.w3.org/TR/2001/REC-SVG-20010904/DTD/svg10.dtd">
<svg version="1.0" xmlns="http://www.w3.org/2000/svg"
 width="260.000000pt" height="280.000000pt" viewBox="0 0 260.000000 280.000000"
 preserveAspectRatio="xMidYMid meet">

<g transform="translate(0.000000,280.000000) scale(0.100000,-0.100000)"
fill="#000000" stroke="none">
<path d="M292 2009 c-5 -13 -50 -143 -99 -289 l-90 -265 8 -163 c10 -224 5
-212 84 -212 l65 0 0 -29 c0 -77 97 -115 146 -57 14 15 24 40 24 57 l0 29 845
0 845 0 0 -34 c0 -26 7 -41 31 -60 35 -30 49 -32 90 -11 22 12 32 27 41 60
l12 45 87 0 c105 0 96 -17 109 213 l9 161 -91 280 c-50 155 -91 282 -92 283
-1 1 -455 5 -1009 9 l-1006 7 -9 -24z m98 -9 c0 -5 -9 -10 -20 -10 -41 0 -66
-43 -124 -216 -31 -93 -56 -179 -56 -190 0 -12 9 -33 21 -48 l20 -26 1055 0
c657 0 1062 4 1073 10 10 5 24 23 30 39 11 26 7 49 -39 208 -55 190 -73 223
-128 223 -18 0 -23 3 -15 11 5 5 30 9 53 7 l43 -3 78 -240 c43 -132 81 -252
84 -267 l7 -28 -1171 0 c-720 0 -1171 4 -1171 9 0 7 150 453 175 519 5 14 85
17 85 2z m530 0 c-20 -13 -467 -13 -475 0 -4 7 79 10 242 10 164 0 243 -4 233
-10z m60 -21 c0 -10 -6 -19 -12 -19 -7 0 -50 -15 -96 -34 -46 -18 -81 -29 -79
-23 4 14 170 106 180 100 4 -2 7 -13 7 -24z m620 21 c0 -6 -108 -10 -305 -10
-197 0 -305 4 -305 10 0 6 108 10 305 10 197 0 305 -4 305 -10z m208 -98 c2
-6 -40 7 -93 27 -53 21 -96 40 -96 44 1 4 1 14 1 23 0 12 23 3 92 -35 51 -27
94 -54 96 -59z m337 98 c-4 -6 -93 -10 -235 -10 -142 0 -231 4 -235 10 -4 7
77 10 235 10 158 0 239 -3 235 -10z m-1658 -47 c91 -58 81 -70 -22 -24 -54 25
-63 32 -58 50 3 12 10 18 17 14 6 -4 34 -22 63 -40z m1703 24 c0 -20 -11 -29
-65 -52 -36 -15 -69 -24 -73 -21 -4 4 0 11 8 16 8 5 38 25 65 44 60 42 65 43
65 13z m-1800 -16 c0 -6 -4 -13 -10 -16 -5 -3 -30 -70 -56 -149 -75 -230 -81
-226 303 -226 276 0 335 7 353 39 19 36 42 323 27 338 -4 3 -7 10 -7 15 0 4
135 8 300 8 193 0 300 -4 300 -10 0 -5 -5 -10 -11 -10 -12 0 -6 -142 11 -269
15 -111 -2 -106 359 -106 290 0 310 1 330 19 31 28 26 73 -23 216 -23 69 -46
133 -50 143 -6 13 -4 17 11 17 40 0 54 -26 103 -195 28 -94 50 -180 50 -192 0
-12 -12 -31 -26 -42 -27 -21 -30 -21 -1065 -21 -1026 0 -1039 0 -1059 20 -11
11 -20 33 -20 48 0 42 108 355 127 370 20 14 53 16 53 3z m446 -6 c-12 -9 -28
-12 -40 -8 -31 9 -186 6 -223 -6 -24 -7 -35 -6 -43 4 -13 16 28 20 220 23 94
1 103 0 86 -13z m1240 -4 c-20 -13 -36 -17 -50 -11 -40 15 -141 21 -191 11
-38 -7 -56 -6 -75 4 -22 13 -3 14 160 15 l185 0 -29 -19z m-1081 -105 c-13
-174 -22 -227 -42 -242 -15 -11 -74 -13 -322 -11 -192 1 -305 6 -307 12 -2 6
24 28 59 51 l62 41 45 -21 c61 -28 210 -29 292 -2 l58 19 52 -41 c36 -28 55
-37 59 -29 13 23 -3 67 -32 88 l-29 20 20 39 c26 51 25 88 -2 117 -25 26 -26
25 27 45 64 25 68 19 60 -86z m680 81 c41 -14 41 -13 12 -43 -32 -32 -33 -41
-6 -103 l20 -48 -30 -31 c-21 -21 -31 -40 -31 -61 0 -17 2 -31 5 -31 3 0 29
18 57 41 37 29 57 39 72 34 151 -43 258 -46 334 -8 l41 20 67 -44 c50 -34 63
-47 53 -54 -8 -5 -147 -9 -310 -9 -227 0 -299 3 -313 13 -22 16 -32 68 -42
209 -7 119 -3 144 24 133 9 -4 31 -12 47 -18z m-1222 -9 l28 -10 -41 -38 c-34
-32 -40 -43 -40 -78 0 -38 -3 -43 -40 -62 -22 -11 -40 -17 -40 -14 0 12 42
148 57 187 12 29 20 36 32 32 9 -4 29 -12 44 -17z m317 12 c9 -5 -15 -7 -65
-3 -44 3 -82 7 -84 9 -10 9 135 3 149 -6z m1199 6 c-2 -2 -40 -6 -84 -9 -53
-5 -75 -4 -65 3 14 9 159 15 149 6z m278 -116 c14 -47 28 -91 30 -97 3 -9 -10
-6 -38 7 -41 18 -44 22 -41 54 3 29 -3 42 -37 79 l-41 45 37 15 c48 20 55 13
90 -103z m-1483 81 c3 -4 -34 -11 -82 -14 -95 -6 -180 -33 -218 -68 -13 -13
-24 -18 -24 -12 0 19 70 73 94 73 13 0 29 7 36 15 9 11 34 15 101 15 48 0 90
-4 93 -9z m1262 -6 c10 -8 28 -15 39 -15 23 0 95 -55 95 -72 0 -6 -8 -4 -17 4
-52 45 -161 78 -259 78 -34 0 -53 4 -49 10 10 16 168 12 191 -5z m-1146 -5
c11 -6 25 -20 31 -33 l12 -22 -24 21 c-13 12 -33 26 -44 32 -11 6 -14 12 -7
12 7 0 22 -5 32 -10z m856 -3 c-11 -7 -28 -20 -38 -29 -25 -25 -23 -9 4 19 12
13 29 23 37 22 13 0 12 -3 -3 -12z m44 -6 c0 -5 -10 -11 -22 -14 -22 -6 -22
-6 -4 8 23 17 26 18 26 6z m-933 -34 c42 -22 56 -48 43 -81 l-9 -25 -85 44
c-98 51 -150 58 -203 25 -89 -54 26 -121 121 -71 l38 20 35 -26 c18 -14 32
-28 29 -30 -2 -2 -28 -11 -57 -19 -98 -25 -275 -12 -286 23 -2 6 10 16 27 23
68 28 54 74 -16 52 -19 -5 -34 -7 -34 -3 0 21 75 65 137 81 61 15 223 7 260
-13z m1174 7 c60 -18 114 -48 122 -68 4 -10 -3 -11 -34 -2 -68 18 -80 -29 -14
-53 19 -7 35 -16 35 -20 0 -36 -202 -54 -295 -26 l-59 17 32 29 c29 28 33 29
54 15 34 -22 103 -31 137 -16 78 32 27 100 -74 100 -34 0 -64 -10 -113 -36
-37 -20 -72 -40 -78 -45 -14 -11 -34 9 -34 36 0 26 34 59 75 73 47 16 185 14
246 -4z m158 -37 c-2 -3 -15 10 -28 27 l-24 31 28 -27 c16 -15 27 -29 24 -31z
m-1442 -23 c3 -8 0 -21 -7 -27 -10 -9 -11 -9 -6 1 4 7 2 19 -4 27 -9 11 -9 15
-1 15 6 0 14 -7 18 -16z m1138 -9 c0 -27 -10 -33 -18 -11 -4 10 9 36 18 36 0
0 0 -11 0 -25z m-1280 -10 c0 -25 -6 -31 -18 -19 -5 6 9 44 16 44 1 0 2 -11 2
-25z m112 9 c5 -15 -49 -34 -76 -27 -26 7 -27 19 -3 32 22 14 74 10 79 -5z
m1268 3 c14 -11 15 -16 5 -22 -17 -11 -70 -9 -82 3 -28 28 41 44 77 19z m31
-35 c-18 -16 -18 -16 -8 4 6 12 10 24 8 26 -1 3 2 2 8 -3 7 -6 4 -15 -8 -27z
m-1476 18 c0 -6 -11 -15 -25 -20 -13 -5 -62 -34 -107 -65 -80 -53 -83 -54 -89
-33 -3 13 -4 27 -1 32 6 11 192 94 215 96 4 0 7 -5 7 -10z m325 -37 c65 -41
96 -75 83 -88 -5 -5 -162 114 -166 126 -6 16 7 10 83 -38z m970 37 c-3 -5 -42
-37 -86 -70 -67 -52 -79 -58 -79 -40 0 14 22 35 76 70 74 48 102 61 89 40z
m378 -43 c80 -37 87 -42 87 -68 0 -16 -2 -29 -5 -29 -3 0 -38 22 -78 49 -40
26 -87 56 -104 65 -38 19 -45 41 -10 30 12 -4 61 -25 110 -47z m272 -429 c-4
-83 -11 -162 -14 -175 l-6 -23 -1155 0 -1155 0 -6 22 c-3 13 -9 92 -12 176
l-7 152 1181 0 1181 0 -7 -152z m-2065 -248 c0 -37 -31 -70 -65 -70 -34 0 -65
33 -65 70 l0 30 65 0 65 0 0 -30z m1860 3 c0 -34 -36 -73 -67 -73 -31 0 -73
43 -73 75 0 24 2 25 70 25 69 0 70 0 70 -27z"/>
<path d="M1192 1903 c-15 -14 -24 -45 -37 -131 -18 -112 -18 -114 2 -140 19
-26 25 -27 114 -30 113 -3 134 1 155 32 14 23 14 34 -3 138 -22 143 -27 148
-132 148 -61 0 -83 -4 -99 -17z m177 -10 c16 -14 25 -40 36 -108 19 -118 19
-131 -5 -155 -17 -17 -33 -20 -108 -20 -139 0 -146 10 -117 185 10 61 20 94
32 102 26 20 136 17 162 -4z"/>
<path d="M1207 1883 c-3 -5 -13 -57 -22 -116 -22 -139 -23 -137 106 -137 124
0 124 0 103 136 -9 55 -21 105 -26 112 -11 13 -153 18 -161 5z m152 -25 c5
-13 14 -63 21 -112 15 -106 15 -106 -90 -106 -107 0 -106 -1 -91 117 8 54 18
104 24 111 5 7 33 12 68 12 53 0 60 -3 68 -22z"/>
<path d="M542 1413 c-40 -19 -62 -59 -62 -110 0 -45 20 -77 60 -98 69 -36 148
-2 171 74 15 49 -7 103 -53 131 -40 24 -72 25 -116 3z m121 -27 c70 -65 28
-178 -66 -178 -48 0 -76 18 -93 59 -20 46 -10 86 28 118 40 34 95 34 131 1z"/>
<path d="M536 1359 c-30 -35 -32 -49 -11 -89 26 -50 94 -57 133 -14 47 53 10
134 -62 134 -26 0 -40 -7 -60 -31z m110 -10 c27 -29 11 -32 -40 -7 -37 17 -43
24 -29 29 24 8 48 1 69 -22z m-36 -54 l35 -16 -45 6 c-44 6 -75 29 -64 47 3 5
14 2 23 -6 9 -8 32 -22 51 -31z m0 30 c16 -9 19 -14 9 -15 -8 0 -24 7 -35 15
-24 18 -7 19 26 0z m-5 -61 c26 -5 33 -9 23 -15 -22 -14 -44 -10 -69 12 -16
14 -18 19 -7 15 9 -2 33 -8 53 -12z"/>
<path d="M1932 1413 c-40 -19 -62 -59 -62 -110 0 -45 20 -77 60 -98 97 -50
202 38 168 141 -15 44 -66 84 -107 84 -14 0 -41 -8 -59 -17z m107 -17 c48 -25
63 -83 36 -136 -18 -36 -47 -52 -90 -52 -46 0 -74 18 -91 59 -20 46 -10 86 28
118 33 28 75 32 117 11z"/>
<path d="M1926 1359 c-30 -35 -32 -49 -11 -88 16 -33 33 -41 80 -41 67 0 99
87 50 135 -36 37 -86 34 -119 -6z m110 -10 c27 -29 11 -32 -40 -7 -37 17 -43
24 -29 29 24 8 48 1 69 -22z m-31 -58 c28 -10 27 -11 -15 -6 -44 6 -75 29 -64
47 4 5 16 1 28 -10 11 -11 35 -25 51 -31z m-5 34 c16 -9 19 -14 9 -15 -8 0
-24 7 -35 15 -24 18 -7 19 26 0z m10 -65 l25 -7 -23 -7 c-25 -8 -82 10 -82 25
0 9 15 7 80 -11z"/>
<path d="M603 95 c0 -27 2 -38 4 -22 2 15 8 27 13 27 5 0 11 -12 13 -27 4 -26
4 -26 6 5 1 22 -4 32 -13 32 -8 0 -17 8 -19 18 -3 9 -5 -5 -4 -33z"/>
<path d="M1102 95 c0 -27 2 -43 5 -35 3 8 13 24 22 35 15 18 15 19 -1 7 -14
-12 -17 -10 -21 15 -2 16 -4 6 -5 -22z"/>
<path d="M719 119 c-8 -20 4 -62 19 -65 7 -1 8 0 2 3 -15 7 -12 43 4 43 8 0
16 -10 18 -22 2 -12 9 -23 16 -24 7 -1 8 0 2 3 -12 6 -13 40 -1 45 5 2 3 9 -5
16 -8 7 -14 8 -14 2 0 -14 -27 -13 -32 2 -3 8 -6 7 -9 -3z"/>
<path d="M949 118 c-2 -25 3 -53 11 -62 5 -5 6 1 3 14 -3 12 -1 25 4 29 7 4 6
11 -3 19 -11 10 -14 10 -15 0z"/>
<path d="M1500 125 c-1 -5 -1 -21 0 -34 1 -13 -4 -28 -12 -32 -9 -6 -3 -9 17
-9 17 0 25 4 18 8 -6 4 -13 23 -16 42 -2 19 -5 31 -7 25z"/>
<path d="M1540 110 c-11 -21 1 -60 19 -60 18 0 33 31 27 55 -8 30 -31 33 -46
5z m35 -20 c0 -27 -20 -38 -28 -15 -8 20 3 47 17 42 6 -2 11 -14 11 -27z"/>
<path d="M1605 120 c-4 -6 1 -7 11 -3 13 5 16 3 11 -10 -3 -9 -2 -19 4 -22 14
-9 -1 -27 -18 -21 -8 3 -11 1 -8 -4 9 -14 32 -12 38 3 14 38 -19 88 -38 57z"/>
<path d="M1665 120 c-4 -6 1 -7 11 -3 13 5 16 3 11 -10 -3 -9 -2 -19 4 -22 14
-9 -1 -27 -18 -21 -8 3 -11 1 -8 -4 9 -14 32 -12 38 3 14 38 -19 88 -38 57z"/>
<path d="M1725 120 c-3 -5 0 -7 8 -4 24 9 28 -12 7 -31 -27 -25 -25 -35 8 -34
21 0 23 2 9 7 -15 7 -16 10 -3 27 7 10 12 25 9 32 -6 15 -29 17 -38 3z"/>
<path d="M1785 120 c-4 -6 1 -7 11 -3 13 5 16 3 11 -10 -3 -9 -2 -19 4 -22 14
-9 -1 -27 -18 -21 -8 3 -11 1 -8 -4 8 -14 32 -13 37 2 13 39 -18 88 -37 58z"/>
<path d="M1844 115 c-4 -8 -1 -22 6 -30 6 -8 9 -19 5 -25 -3 -5 -4 -10 -1 -10
10 0 33 55 29 68 -6 17 -32 15 -39 -3z m28 -10 c0 -5 -5 -11 -11 -13 -6 -2
-11 4 -11 13 0 9 5 15 11 13 6 -2 11 -8 11 -13z"/>
<path d="M1905 120 c-3 -5 0 -7 8 -4 24 9 28 -12 7 -31 -27 -25 -25 -35 8 -34
21 0 23 2 9 7 -15 7 -16 10 -3 27 7 10 12 25 9 32 -6 15 -29 17 -38 3z"/>
<path d="M1966 122 c-2 -4 4 -8 15 -8 10 0 19 4 19 8 0 10 -27 10 -34 0z"/>
<path d="M2027 123 c-11 -11 -8 -43 4 -43 6 0 9 -7 5 -15 -9 -25 3 -17 17 13
8 15 12 33 10 40 -5 13 -25 16 -36 5z m25 -18 c0 -5 -5 -11 -11 -13 -6 -2 -11
4 -11 13 0 9 5 15 11 13 6 -2 11 -8 11 -13z"/>
<path d="M550 93 c0 -10 4 -14 8 -8 4 6 11 13 16 18 5 4 2 7 -7 7 -10 0 -17
-8 -17 -17z"/>
<path d="M661 83 c-1 -27 3 -33 19 -33 16 0 20 6 19 33 -2 30 -2 30 -6 5 -6
-36 -20 -36 -26 0 -4 25 -4 25 -6 -5z"/>
<path d="M807 104 c-13 -13 -7 -24 14 -24 11 0 19 5 17 12 -5 14 -22 21 -31
12z"/>
<path d="M861 78 c2 -28 2 -29 6 -8 3 14 10 28 17 32 7 5 5 8 -6 8 -14 0 -18
-8 -17 -32z"/>
<path d="M900 93 c0 -10 4 -14 8 -8 4 6 11 13 16 18 5 4 2 7 -7 7 -10 0 -17
-8 -17 -17z"/>
<path d="M994 95 c-8 -21 2 -45 20 -45 7 0 16 7 20 15 8 21 -3 45 -20 45 -8 0
-17 -7 -20 -15z m31 -15 c0 -7 -6 -15 -12 -17 -8 -3 -13 4 -13 17 0 13 5 20
13 18 6 -3 12 -11 12 -18z"/>
<path d="M1054 95 c-8 -20 2 -45 18 -44 10 0 10 2 1 6 -7 2 -13 13 -13 23 0
10 6 21 13 23 9 4 9 6 -1 6 -7 1 -15 -6 -18 -14z"/>
<path d="M1194 95 c-8 -20 2 -45 18 -44 10 0 10 2 1 6 -7 2 -13 13 -13 23 0
10 6 21 13 23 9 4 9 6 -1 6 -7 1 -15 -6 -18 -14z"/>
<path d="M1244 95 c-8 -21 2 -45 20 -45 7 0 16 7 20 15 8 21 -3 45 -20 45 -8
0 -17 -7 -20 -15z m31 -15 c0 -7 -6 -15 -12 -17 -8 -3 -13 4 -13 17 0 13 5 20
13 18 6 -3 12 -11 12 -18z"/>
<path d="M1301 77 c2 -31 2 -31 6 -4 2 15 8 27 13 27 5 0 11 -12 13 -27 l4
-28 2 28 c0 15 5 27 10 27 5 0 12 -12 14 -27 4 -27 4 -27 6 4 1 29 -1 31 -34
31 -33 0 -35 -2 -34 -31z"/>
<path d="M1977 82 c-24 -26 -21 -32 11 -31 16 1 20 3 10 6 -14 4 -16 8 -8 24
13 24 8 24 -13 1z"/>
<path d="M562 65 c-11 -12 -10 -15 3 -15 8 0 15 7 15 15 0 18 -2 18 -18 0z"/>
<path d="M912 65 c-11 -12 -10 -15 3 -15 8 0 15 7 15 15 0 18 -2 18 -18 0z"/>
<path d="M1120 71 c0 -5 5 -13 10 -16 6 -3 10 -2 10 4 0 5 -4 13 -10 16 -5 3
-10 2 -10 -4z"/>
<path d="M808 58 c5 -5 16 -8 23 -6 8 3 3 7 -10 11 -17 4 -21 3 -13 -5z"/>
</g>
</svg>
